/* XPM */
static char * icepref_16_xpm[] = {
"16 16 183 2",
"  	c None",
". 	c #48537F",
"+ 	c #767C98",
"@ 	c #909BCD",
"# 	c #4E567C",
"$ 	c #676A82",
"% 	c #9397A8",
"& 	c #98A4D4",
"* 	c #9CA5CC",
"= 	c #7C8091",
"- 	c #D1D6E4",
"; 	c #8A8993",
"> 	c #9DA2B8",
", 	c #A3AED9",
"' 	c #E8EBF7",
") 	c #8B93B2",
"! 	c #E4E5E8",
"~ 	c #A7AFD1",
"{ 	c #B7B7BC",
"] 	c #828DB6",
"^ 	c #C7CFF1",
"/ 	c #F7F8FA",
"( 	c #838BAC",
"_ 	c #A1A4AE",
": 	c #D8DBE5",
"< 	c #7D85A9",
"[ 	c #82828C",
"} 	c #BDC0CA",
"| 	c #7C87B1",
"1 	c #AFB9E2",
"2 	c #A2A9C2",
"3 	c #6A759E",
"4 	c #7A8099",
"5 	c #A0A7C6",
"6 	c #BABECF",
"7 	c #AEB5D3",
"8 	c #61667E",
"9 	c #DADBDC",
"0 	c #C1C4D0",
"a 	c #BAC0D6",
"b 	c #8892B6",
"c 	c #EDEFF6",
"d 	c #D3D6E2",
"e 	c #858CA9",
"f 	c #939DC6",
"g 	c #8690BA",
"h 	c #9DA2B5",
"i 	c #F8F8F7",
"j 	c #DDDEE3",
"k 	c #7A809E",
"l 	c #C1C2C8",
"m 	c #CED0DB",
"n 	c #D6DAE6",
"o 	c #959CB6",
"p 	c #DBDEE9",
"q 	c #ECEDF0",
"r 	c #A9B0CC",
"s 	c #B4BDDE",
"t 	c #8690B9",
"u 	c #B8BCC8",
"v 	c #E8EAEC",
"w 	c #F0F0F1",
"x 	c #80869C",
"y 	c #A4A6B0",
"z 	c #D2D4DC",
"A 	c #E1E3E8",
"B 	c #C2C7DA",
"C 	c #C2C6D7",
"D 	c #C4C7D8",
"E 	c #E9EAEE",
"F 	c #C2CAE8",
"G 	c #848BA6",
"H 	c #A3ACD1",
"I 	c #C6C8D0",
"J 	c #B6BACB",
"K 	c #FAFAF9",
"L 	c #C4C6D2",
"M 	c #9597A3",
"N 	c #E5E6EC",
"O 	c #E4E8F2",
"P 	c #D0D3E0",
"Q 	c #DFE1EB",
"R 	c #A6ABC0",
"S 	c #ECEEF6",
"T 	c #D8DDF5",
"U 	c #7D87AF",
"V 	c #B7BCCD",
"W 	c #7A86B2",
"X 	c #79829F",
"Y 	c #B1B5C2",
"Z 	c #A4ADCF",
"` 	c #FAFAFA",
" .	c #F4F5F8",
"..	c #84899E",
"+.	c #D2D3D5",
"@.	c #DFE4F9",
"#.	c #F2F3F8",
"$.	c #F5F6F5",
"%.	c #888CA2",
"&.	c #D8DDF4",
"*.	c #ACB5DA",
"=.	c #7D849D",
"-.	c #9AA0BB",
";.	c #969DB2",
">.	c #6B7491",
",.	c #A6AFCC",
"'.	c #D9DCE4",
").	c #B2B8CC",
"!.	c #5A6692",
"~.	c #9094A3",
"{.	c #D2DAF4",
"].	c #EFF2FA",
"^.	c #E0E0E1",
"/.	c #737A96",
"(.	c #D5D9EA",
"_.	c #D6D8DC",
":.	c #7780A0",
"<.	c #566084",
"[.	c #56638A",
"}.	c #3F4E7C",
"|.	c #4A5983",
"1.	c #56648C",
"2.	c #576592",
"3.	c #45568C",
"4.	c #3C4E84",
"5.	c #404E7A",
"6.	c #7C86AA",
"7.	c #B5BCD0",
"8.	c #A0A6B8",
"9.	c #515E86",
"0.	c #626E97",
"a.	c #546186",
"b.	c #4E5D87",
"c.	c #505E85",
"d.	c #485783",
"e.	c #505E88",
"f.	c #52608A",
"g.	c #4F5E8A",
"h.	c #415286",
"i.	c #344579",
"j.	c #37497F",
"k.	c #35467B",
"l.	c #4B5983",
"m.	c #536189",
"n.	c #54628C",
"o.	c #51608C",
"p.	c #4E5C8B",
"q.	c #465582",
"r.	c #4B5A86",
"s.	c #4E5C8A",
"t.	c #485789",
"u.	c #41507C",
"v.	c #41507E",
"w.	c #3D4E80",
"x.	c #3E4D7E",
"y.	c #43527F",
"z.	c #36477A",
"A.	c #344780",
"B.	c #485686",
"C.	c #4C5A85",
"D.	c #455481",
"E.	c #445380",
"F.	c #4E5C88",
"G.	c #3F4F7F",
"H.	c #405186",
"I.	c #41528A",
"J.	c #3E5088",
"K.	c #3C4C7A",
"L.	c #4D5C88",
"M.	c #4C5B88",
"N.	c #495886",
"O.	c #495888",
"P.	c #52608D",
"Q.	c #4A598A",
"R.	c #52608E",
"S.	c #53628D",
"T.	c #4A5986",
"U.	c #425283",
"V.	c #3E4E80",
"W.	c #415289",
"X.	c #36487E",
"Y.	c #32437A",
"Z.	c #2F4178",
"                .               ",
"              + @ #   $         ",
"              % & * = -         ",
"            ; > , ' ) ! ~       ",
"            { ] ^ / ( _ : <     ",
"          [ } | 1 / 2 3 4 5     ",
"    6 7 8 9 0 a b c d e f g     ",
"  h i j k l m n o p q r s t     ",
"  u v w x y z A B C D E F G H   ",
"  I J K L M N O P Q R S T U V W ",
"X Y Z `  ...+.@.#.$.%.&.` *.=.-.",
";.>.,.'.).!.~.{.].^./.(._.:.<.[.",
"}.|.1.2.3.4.5.6.7.8.9.0.a.b.c.d.",
"e.f.g.h.i.j.k.l.m.n.o.p.q.r.s.t.",
"u.v.w.x.y.z.A.B.C.D.E.F.G.H.I.J.",
"K.L.M.N.O.P.Q.R.S.T.U.V.W.X.Y.Z."};
