/* XPM */
static char * icepref_32_xpm[] = {
"32 32 680 2",
"  	c None",
". 	c #3A446C",
"+ 	c #576291",
"@ 	c #47517D",
"# 	c #6F769A",
"$ 	c #8E9ACD",
"% 	c #7783B3",
"& 	c #454B72",
"* 	c #8187A4",
"= 	c #9CA7D8",
"- 	c #9DA9DD",
"; 	c #626B95",
"> 	c #414154",
", 	c #6F6F7B",
"' 	c #828599",
") 	c #5D6381",
"! 	c #9A9CA8",
"~ 	c #868CA5",
"{ 	c #8792C3",
"] 	c #AEBAED",
"^ 	c #9CA7D5",
"/ 	c #677198",
"( 	c #54586C",
"_ 	c #A1A2AA",
": 	c #D8DCE6",
"< 	c #ABB3CF",
"[ 	c #5C638A",
"} 	c #AFB0B9",
"| 	c #80859B",
"1 	c #7A85B4",
"2 	c #B3BEEB",
"3 	c #C8D0F2",
"4 	c #A1ABD0",
"5 	c #646C89",
"6 	c #9699A6",
"7 	c #E7E8EC",
"8 	c #DBDFEF",
"9 	c #8B93B9",
"0 	c #9796A0",
"a 	c #C3C5CE",
"b 	c #81879F",
"c 	c #7C88B7",
"d 	c #BCC5EC",
"e 	c #E6EAF9",
"f 	c #D9DEF1",
"g 	c #8790B3",
"h 	c #8A90AA",
"i 	c #DBDDE2",
"j 	c #F2F3F6",
"k 	c #B4BCDC",
"l 	c #757EA9",
"m 	c #64626F",
"n 	c #B4B4B9",
"o 	c #B5B9C9",
"p 	c #7B85AA",
"q 	c #8E9BCE",
"r 	c #C7D0F2",
"s 	c #F1F3FA",
"t 	c #EEF0F8",
"u 	c #9DA6C7",
"v 	c #7E87A5",
"w 	c #CCCDD3",
"x 	c #F6F6F6",
"y 	c #D1D7EE",
"z 	c #8E97C0",
"A 	c #4A5077",
"B 	c #929198",
"C 	c #CCCCD0",
"D 	c #939BB4",
"E 	c #7C89BA",
"F 	c #ACB8E8",
"G 	c #DCE1F8",
"H 	c #F9F9FB",
"I 	c #F4F6F9",
"J 	c #A5AECF",
"K 	c #61698A",
"L 	c #A0A2AA",
"M 	c #E3E4E5",
"N 	c #EAEBF3",
"O 	c #D0D6EB",
"P 	c #848DB3",
"Q 	c #484E74",
"R 	c #595963",
"S 	c #BBBBBF",
"T 	c #C1C2C8",
"U 	c #7D87A9",
"V 	c #7B8AC0",
"W 	c #E2E6F8",
"X 	c #FBFBFB",
"Y 	c #F5F7F9",
"Z 	c #ADB6D7",
"` 	c #586082",
" .	c #65697C",
"..	c #9CA0AC",
"+.	c #C8CACF",
"@.	c #E0E2E8",
"#.	c #B8BFDC",
"$.	c #69729A",
"%.	c #3B3B4A",
"&.	c #8F9097",
"*.	c #D5D6D9",
"=.	c #ACAFBD",
"-.	c #727DA2",
";.	c #7281B6",
">.	c #A0ACDF",
",.	c #D4DBF4",
"'.	c #F8F9FB",
").	c #F9FAFA",
"!.	c #C2C9E3",
"~.	c #6E7595",
"{.	c #565F84",
"].	c #6A759F",
"^.	c #727890",
"/.	c #9DA0A9",
"(.	c #C0C6DA",
"_.	c #8891BA",
":.	c #24263B",
"<.	c #6D6D79",
"[.	c #C3C4C8",
"}.	c #D3D4D8",
"|.	c #A1A5BA",
"1.	c #8992B5",
"2.	c #818DB6",
"3.	c #8B98CB",
"4.	c #BCC6EA",
"5.	c #F0F3F9",
"6.	c #FBFCFB",
"7.	c #D6DBEA",
"8.	c #848BA8",
"9.	c #69739A",
"0.	c #7F8CBD",
"a.	c #6C769F",
"b.	c #6D738C",
"c.	c #A8ADC4",
"d.	c #8E99C2",
"e.	c #848BA5",
"f.	c #AFB4CB",
"g.	c #A8AFCF",
"h.	c #838CB1",
"i.	c #464C67",
"j.	c #555866",
"k.	c #BABBBE",
"l.	c #EEEEEE",
"m.	c #D7D8DC",
"n.	c #A1A7BD",
"o.	c #ACB3D0",
"p.	c #B2B8CF",
"q.	c #838EB5",
"r.	c #9AA5D0",
"s.	c #E4E7F5",
"t.	c #EAECF1",
"u.	c #A5ACC4",
"v.	c #6D7594",
"w.	c #969EBC",
"x.	c #9EA9D4",
"y.	c #6C759F",
"z.	c #8C93B3",
"A.	c #8793BD",
"B.	c #465485",
"C.	c #80879F",
"D.	c #C8CBD8",
"E.	c #EDEEF4",
"F.	c #DDE1F2",
"G.	c #B1B9DB",
"H.	c #747B9E",
"I.	c #767A8C",
"J.	c #CBCCCE",
"K.	c #F7F8F6",
"L.	c #E2E4E7",
"M.	c #A9AEC2",
"N.	c #B5BCD6",
"O.	c #D4D7E5",
"P.	c #848AA2",
"Q.	c #808AB1",
"R.	c #DBDFF0",
"S.	c #FBFBFA",
"T.	c #F5F6F6",
"U.	c #C7CCDE",
"V.	c #787F9D",
"W.	c #99A0B8",
"X.	c #BDC6E7",
"Y.	c #848FBC",
"Z.	c #838EBA",
"`.	c #808DBF",
" +	c #49588B",
".+	c #A6ABBD",
"++	c #EEEFF1",
"@+	c #FCFCFA",
"#+	c #F1F2F4",
"$+	c #C0C3D1",
"%+	c #8A91B3",
"&+	c #717795",
"*+	c #ADAEB7",
"=+	c #ECECEC",
"-+	c #EAEAED",
";+	c #B1B5C8",
">+	c #BCC2D8",
",+	c #E7EAF2",
"'+	c #9599A7",
")+	c #7C86AA",
"!+	c #D3D8EC",
"~+	c #F4F4F4",
"{+	c #E8EAF2",
"]+	c #9AA2C0",
"^+	c #97A1C3",
"/+	c #C5CDE9",
"(+	c #9FAAD4",
"_+	c #808BBA",
":+	c #8692C3",
"<+	c #6270A3",
"[+	c #6F7792",
"}+	c #BABECA",
"|+	c #F8F8F7",
"1+	c #FDFDFB",
"2+	c #F7F7F6",
"3+	c #CDCED2",
"4+	c #878DA7",
"5+	c #656C8B",
"6+	c #9295A2",
"7+	c #D8D8DA",
"8+	c #E9EAED",
"9+	c #B4B8C9",
"0+	c #C5C9D8",
"a+	c #F0F1F4",
"b+	c #B3B7C6",
"c+	c #919CC1",
"d+	c #CFD4E9",
"e+	c #D7D8DA",
"f+	c #DFE0E3",
"g+	c #F2F3F7",
"h+	c #C5C9DC",
"i+	c #AEB5CF",
"j+	c #C6CDE4",
"k+	c #A7B1D9",
"l+	c #7C85A9",
"m+	c #949CBD",
"n+	c #7F8BBB",
"o+	c #868EA2",
"p+	c #D1D3DA",
"q+	c #F0F1F2",
"r+	c #F9F9F8",
"s+	c #E0E0E3",
"t+	c #8C91A4",
"u+	c #626985",
"v+	c #828595",
"w+	c #C9C9CC",
"x+	c #E9EAEC",
"y+	c #B7BBCA",
"z+	c #CCCFDA",
"A+	c #F6F7F6",
"B+	c #D2D5DF",
"C+	c #AAB3D5",
"D+	c #C9CEE6",
"E+	c #B8B9C2",
"F+	c #E4E6F0",
"G+	c #EBEDF0",
"H+	c #DADCE3",
"I+	c #D4D9E9",
"J+	c #ADB7DF",
"K+	c #70799B",
"L+	c #9EA2B4",
"M+	c #A9B1D6",
"N+	c #7A86B7",
"O+	c #A2A7B7",
"P+	c #DFE0E4",
"Q+	c #D9DBE0",
"R+	c #E4E5E9",
"S+	c #FAFAF9",
"T+	c #EEEEEF",
"U+	c #A3A5B4",
"V+	c #717791",
"W+	c #828695",
"X+	c #C5C6C9",
"Y+	c #EAEBEE",
"Z+	c #BCC0CE",
"`+	c #CED2DC",
" @	c #F4F5F6",
".@	c #DADCE1",
"+@	c #B1B8D3",
"@@	c #C7CDE4",
"#@	c #C2C4CF",
"$@	c #A7ACC4",
"%@	c #CCD0E2",
"&@	c #F1F1F4",
"*@	c #DADFF2",
"=@	c #ADB8E5",
"-@	c #6C769E",
";@	c #969BAC",
">@	c #C5CAE0",
",@	c #95A0CC",
"'@	c #545F80",
")@	c #B4B9C5",
"!@	c #DBDCDF",
"~@	c #B2B6C4",
"{@	c #CBCFD9",
"]@	c #F9FAF9",
"^@	c #FAFAF8",
"/@	c #CACCD3",
"(@	c #979CB3",
"_@	c #7E8294",
":@	c #B8B9BE",
"<@	c #EEEFF2",
"[@	c #D0D4E1",
"}@	c #D8DCE7",
"|@	c #ECEEF6",
"1@	c #DADCE4",
"2@	c #B4B9CF",
"3@	c #CACEE2",
"4@	c #E2E3EA",
"5@	c #A8ADC1",
"6@	c #B0B5CD",
"7@	c #EAECF4",
"8@	c #F7F8F8",
"9@	c #E0E5F8",
"0@	c #B8C2ED",
"a@	c #7985B5",
"b@	c #777F9A",
"c@	c #BDC1CB",
"d@	c #C1C8E4",
"e@	c #7581AF",
"f@	c #66708D",
"g@	c #C7CAD3",
"h@	c #C0C1C7",
"i@	c #969CB5",
"j@	c #C3C8DB",
"k@	c #F7F8F9",
"l@	c #E9E9EC",
"m@	c #C4C8D8",
"n@	c #7D8192",
"o@	c #A0A1A9",
"p@	c #ECEDEE",
"q@	c #E9EAF0",
"r@	c #E7EBF7",
"s@	c #E3E6F0",
"t@	c #CED1DF",
"u@	c #DCDFEA",
"v@	c #F3F3F5",
"w@	c #A7AAB7",
"x@	c #999FBB",
"y@	c #DADFF1",
"z@	c #F5F7FA",
"A@	c #EFF1FA",
"B@	c #D7DDF5",
"C@	c #96A2D0",
"D@	c #6D779E",
"E@	c #9A9EAC",
"F@	c #C5C8D8",
"G@	c #96A0C7",
"H@	c #6573A0",
"I@	c #3F4C74",
"J@	c #8990A9",
"K@	c #D6D8DF",
"L@	c #9DA0AD",
"M@	c #838CB0",
"N@	c #C3CAE6",
"O@	c #F6F6FA",
"P@	c #EAECF3",
"Q@	c #9195A7",
"R@	c #797C8A",
"S@	c #F4F5F4",
"T@	c #EBEEF8",
"U@	c #E0E5F9",
"V@	c #EEF1F9",
"W@	c #F6F6F7",
"X@	c #F6F6F5",
"Y@	c #9798A2",
"Z@	c #8188A8",
"`@	c #C4CCED",
" #	c #EBEDFA",
".#	c #C6CDEB",
"+#	c #8996C5",
"@#	c #6F7796",
"##	c #8B8F9F",
"$#	c #A7ADC5",
"%#	c #949EC4",
"&#	c #666F92",
"*#	c #AAB0C2",
"=#	c #CBCFD8",
"-#	c #858CA2",
";#	c #838EB9",
">#	c #C8CFED",
",#	c #F0F2F7",
"'#	c #A5ABC5",
")#	c #626880",
"!#	c #A1A3A9",
"~#	c #E9E9EA",
"{#	c #DFE5F9",
"]#	c #D2DAF9",
"^#	c #EBEEFA",
"/#	c #EDEFEF",
"(#	c #898B97",
"_#	c #7D85A7",
":#	c #C5CDF0",
"<#	c #EAEDFA",
"[#	c #FCFCFB",
"}#	c #FAFBFA",
"|#	c #D0D6EE",
"1#	c #909CCB",
"2#	c #737DA1",
"3#	c #868B9E",
"4#	c #989BAC",
"5#	c #9299B7",
"6#	c #9EA4B8",
"7#	c #BBBFCC",
"8#	c #9499A8",
"9#	c #6B7595",
"0#	c #9CA7CD",
"a#	c #D5DAEE",
"b#	c #F2F3F5",
"c#	c #F5F5F6",
"d#	c #E5E7EC",
"e#	c #C4C9D9",
"f#	c #838EB6",
"g#	c #4F597F",
"h#	c #787B8A",
"i#	c #CBCCD0",
"j#	c #DEE3F7",
"k#	c #CAD4F9",
"l#	c #E5E9FA",
"m#	c #F8F8F6",
"n#	c #D2D2D5",
"o#	c #76798A",
"p#	c #7F88AC",
"q#	c #CFD5F0",
"r#	c #E1E2E4",
"s#	c #A3AAC2",
"t#	c #6D769A",
"u#	c #5D6688",
"v#	c #6A7394",
"w#	c #667090",
"x#	c #616B8F",
"y#	c #808AA4",
"z#	c #7E88A1",
"A#	c #586281",
"B#	c #546087",
"C#	c #818DB2",
"D#	c #A5ADC5",
"E#	c #BEC3D1",
"F#	c #BFC4D3",
"G#	c #A1A9C0",
"H#	c #7C87A9",
"I#	c #556495",
"J#	c #404F7E",
"K#	c #575F7B",
"L#	c #A5A9B6",
"M#	c #D8DCEB",
"N#	c #CAD3F3",
"O#	c #E2E7FA",
"P#	c #FAFBFB",
"Q#	c #F4F4F3",
"R#	c #C1C1C5",
"S#	c #6A6F84",
"T#	c #B8BED9",
"U#	c #DEE0E7",
"V#	c #DBDCE1",
"W#	c #A6AAB3",
"X#	c #717A9A",
"Y#	c #5B668C",
"Z#	c #4A5478",
"`#	c #49547D",
" $	c #495783",
".$	c #495986",
"+$	c #41507D",
"@$	c #3E4D7A",
"#$	c #41507C",
"$$	c #4B5A84",
"%$	c #55638C",
"&$	c #5F6C92",
"*$	c #687499",
"=$	c #64719B",
"-$	c #526292",
";$	c #46578A",
">$	c #3F5188",
",$	c #394B80",
"'$	c #384773",
")$	c #5E688A",
"!$	c #8E97B3",
"~$	c #9FA8CD",
"{$	c #CCD1E6",
"]$	c #E7E9ED",
"^$	c #D8DBE0",
"/$	c #A4A7B6",
"($	c #5C6686",
"_$	c #4C5987",
":$	c #6C779F",
"<$	c #838DAB",
"[$	c #7A84A0",
"}$	c #556081",
"|$	c #4C5A84",
"1$	c #54628C",
"2$	c #505D84",
"3$	c #4D5A82",
"4$	c #475581",
"5$	c #445383",
"6$	c #3B4C7C",
"7$	c #42517F",
"8$	c #4D5B85",
"9$	c #505E87",
"0$	c #526089",
"a$	c #4B5A8B",
"b$	c #44558B",
"c$	c #3F5189",
"d$	c #3E5089",
"e$	c #3F5087",
"f$	c #394B81",
"g$	c #304174",
"h$	c #3A4875",
"i$	c #56628A",
"j$	c #6B779F",
"k$	c #8993B3",
"l$	c #99A1B8",
"m$	c #8F98AF",
"n$	c #737D9B",
"o$	c #546188",
"p$	c #475685",
"q$	c #495888",
"r$	c #505E8B",
"s$	c #45537F",
"t$	c #3E4C7A",
"u$	c #495885",
"v$	c #516088",
"w$	c #526088",
"x$	c #526087",
"y$	c #4D5B84",
"z$	c #495784",
"A$	c #4C5B87",
"B$	c #4F5E88",
"C$	c #52618A",
"D$	c #52608A",
"E$	c #526189",
"F$	c #4F5E89",
"G$	c #415286",
"H$	c #3B4C82",
"I$	c #384A81",
"J$	c #3C4D82",
"K$	c #314379",
"L$	c #374778",
"M$	c #475681",
"N$	c #505E86",
"O$	c #53618A",
"P$	c #55638B",
"Q$	c #55648B",
"R$	c #53628B",
"S$	c #52618B",
"T$	c #4D5D8B",
"U$	c #4B5A8A",
"V$	c #4C5A8A",
"W$	c #445382",
"X$	c #465582",
"Y$	c #51608A",
"Z$	c #515F8A",
"`$	c #4E5C88",
" %	c #485788",
".%	c #4F5E8A",
"+%	c #425388",
"@%	c #3A4B7E",
"#%	c #2F4071",
"$%	c #2C3D6F",
"%%	c #32447A",
"&%	c #354780",
"*%	c #34477E",
"=%	c #37497D",
"-%	c #465581",
";%	c #4E5B83",
">%	c #515E86",
",%	c #536189",
"'%	c #53628C",
")%	c #51608C",
"!%	c #505F8C",
"~%	c #505F8B",
"{%	c #4A5986",
"]%	c #44527E",
"^%	c #445380",
"/%	c #485787",
"(%	c #4A598A",
"_%	c #46568A",
":%	c #435389",
"<%	c #3F4E79",
"[%	c #404F7A",
"}%	c #41507B",
"|%	c #415080",
"1%	c #435386",
"2%	c #425387",
"3%	c #3C4C81",
"4%	c #3A4A7A",
"5%	c #3B4A76",
"6%	c #374776",
"7%	c #314173",
"8%	c #2F4279",
"9%	c #334680",
"0%	c #35477F",
"a%	c #435383",
"b%	c #4C5A87",
"c%	c #4F5D86",
"d%	c #4F5D88",
"e%	c #4D5C87",
"f%	c #4D5C88",
"g%	c #51608B",
"h%	c #43537F",
"i%	c #3A497A",
"j%	c #3D4D80",
"k%	c #415287",
"l%	c #42538A",
"m%	c #41528A",
"n%	c #41517D",
"o%	c #43527E",
"p%	c #3E4D7D",
"q%	c #38497B",
"r%	c #37487A",
"s%	c #3B4B7C",
"t%	c #455482",
"u%	c #4E5D89",
"v%	c #4B5A87",
"w%	c #41507E",
"x%	c #38497C",
"y%	c #344880",
"z%	c #354881",
"A%	c #425286",
"B%	c #4D5B8A",
"C%	c #4E5C87",
"D%	c #3D4D7C",
"E%	c #3B4B7A",
"F%	c #3B4A79",
"G%	c #3C4B7A",
"H%	c #475683",
"I%	c #425282",
"J%	c #415288",
"K%	c #415289",
"L%	c #405289",
"M%	c #3D4F87",
"N%	c #394D85",
"O%	c #42527E",
"P%	c #495884",
"Q%	c #505F8A",
"R%	c #4E5C89",
"S%	c #465682",
"T%	c #435281",
"U%	c #4C5C89",
"V%	c #4B5B8A",
"W%	c #4E5D8A",
"X%	c #52608C",
"Y%	c #445487",
"Z%	c #52618E",
"`%	c #53628D",
" &	c #40507F",
".&	c #3F4E7E",
"+&	c #3B4B7D",
"@&	c #3A497B",
"#&	c #415180",
"$&	c #435488",
"%&	c #3E5087",
"&&	c #384A80",
"*&	c #35467D",
"=&	c #34467D",
"-&	c #31437C",
";&	c #30427A",
">&	c #304072",
",&	c #364776",
"'&	c #54638E",
")&	c #4D5B88",
"!&	c #445484",
"~&	c #415184",
"{&	c #495989",
"]&	c #53628F",
"^&	c #55648F",
"/&	c #51608D",
"(&	c #505E8C",
"_&	c #566591",
":&	c #4C5B8A",
"<&	c #445488",
"[&	c #3E4D81",
"}&	c #405082",
"|&	c #425389",
"1&	c #3E5088",
"2&	c #36487F",
"3&	c #2E3F74",
"4&	c #2F3F74",
"5&	c #324279",
"6&	c #2F4178",
"7&	c #2C3E73",
"                                .                               ",
"                                + @                             ",
"                              # $ % &                           ",
"                              * = - ;   > , ' )                 ",
"                            ! ~ { ] ^ / ( _ : < [               ",
"                            } | 1 2 3 4 5 6 7 8 9               ",
"                          0 a b c d e f g h i j k l             ",
"                        m n o p q r s t u v w x y z A           ",
"                        B C D E F G H I J K L M N O P Q         ",
"                      R S T U V 2 W X Y Z `  ...+.@.#.$.        ",
"                    %.&.*.=.-.;.>.,.'.).!.~.{.].^./.(._.        ",
"                  :.<.[.}.|.1.2.3.4.5.6.7.8.9.0.a.b.c.d.        ",
"        e.f.g.h.i.j.k.l.m.n.o.p.q.r.s.X t.u.v.w.x.y.z.A.B.      ",
"      C.D.E.F.G.H.I.J.K.L.M.N.O.P.Q.R.S.T.U.V.W.X.Y.Z.`. +      ",
"      .+++@+#+$+%+&+*+=+-+;+>+,+'+)+!+~+x {+]+^+/+(+_+:+<+      ",
"    [+}+|+1+2+3+4+5+6+7+8+9+0+a+b+c+d+e+f+g+h+i+j+k+l+m+n+      ",
"    o+p+q+T.r+s+t+u+v+w+x+y+z+A+B+C+D+E+y+F+G+H+I+J+K+L+M+N+    ",
"    O+P+Q+R+S+T+U+V+W+X+Y+Z+`+ @.@+@@@#@$@%@&@++*@=@-@;@>@,@    ",
"  '@)@!@~@{@]@^@/@(@_@:@<@[@}@|@1@2@3@4@5@6@7@8@9@0@a@b@c@d@e@  ",
"  f@g@h@i@j@k@@+l@m@n@o@p@q@,+r@s@t@u@v@w@x@y@z@A@B@C@D@E@F@G@H@",
"I@J@K@L@M@N@O@1+S.P@Q@R@J.S@T@U@V@v@W@X@Y@Z@`@ #X z@.#+#@###$#%#",
"&#*#=#-#;#>#O@1+X ,#'#)#!#~#{#]#^#S.S./#(#_#:#<#[#}#|#1#2#3#4#5#",
"6#7#8#9#0#a#b#c#d#e#f#g#h#i#j#k#l#X m#n#o#p#q#,#A+r#s#t#u#v#w#x#",
"y#z#A#B#C#D#E#F#G#H#I#J#K#L#M#N#O#P#Q#R#S#a.T#U#V#W#X#Y#Z#`# $.$",
"+$@$#$$$%$&$*$=$-$;$>$,$'$)$!$~${$]$^$/$($_$:$<$[$}$|$1$2$3$4$5$",
"6$7$8$9$0$0$a$b$c$d$e$f$g$h$i$j$k$l$m$n$o$p$q$r$s$t$u$v$w$x$y$z$",
"A$B$C$D$E$F$;$G$H$I$J$,$K$L$M$N$O$P$Q$R$S$T$U$V$W$X$F$Y$Y$Z$`$ %",
"0$C$Y$Y$.%U$+%@%#%$%%%&%*%=%-%;%>%,%'%'%'%)%!%~%{%]%^%/%(%(%_%:%",
"<%[%}%|%1%2%3%4%5%6%7%8%9%0%a%b%8$c%d%e%A$f%g%Y$h%i%j%k%l%l%m%>$",
"n%o%]%p%q%r%s%t%u%v%w%x%y%z%A%B%C%M$D%E%F%G%H%`$I%J$J%K%K%L%M%N%",
"O%P%Q%R%S%T%p$U%V%W%X%U%Y%2%a$Z%`%e%T% &.&+&@&#&$&m%%&&&*&=&-&;&",
">&,&-%Z$'&Z%)&!&~&{&]&^&/&(&]&_&_&^&`%/&:&<&[&}&|&1&2&3&4&5&6&7&"};
